<?xml version="1.0" standalone="no"?>
<!DOCTYPE svg PUBLIC "-//W3C//DTD SVG 20010904//EN"
 "http://www.w3.org/TR/2001/REC-SVG-20010904/DTD/svg10.dtd">
<svg version="1.0" xmlns="http://www.w3.org/2000/svg"
 width="16.000000pt" height="16.000000pt" viewBox="0 0 16.000000 16.000000"
 preserveAspectRatio="xMidYMid meet">
<metadata>
Created by potrace 1.11, written by Peter Selinger 2001-2013
</metadata>
<g transform="translate(0.000000,16.000000) scale(0.005161,-0.005161)"
fill="#000000" stroke="none">
<path d="M1419 3046 c-2 -2 -32 -7 -67 -10 -76 -7 -233 -46 -327 -81 -301
-113 -567 -329 -737 -595 -81 -127 -176 -346 -194 -450 -3 -14 -7 -31 -10 -39
-2 -8 -7 -28 -10 -45 -2 -17 -8 -56 -13 -86 -10 -57 -7 -344 4 -415 12 -80 55
-236 91 -325 179 -454 571 -794 1044 -908 126 -30 170 -35 335 -36 153 -1 225
5 311 25 27 6 60 13 72 15 58 11 214 69 293 109 318 158 559 408 706 730 93
204 133 402 128 639 -4 179 -6 199 -40 338 -91 367 -330 699 -646 901 -159
101 -375 186 -544 213 -20 3 -47 8 -59 11 -25 6 -331 14 -337 9z"/>
<path d="M1898 3 c6 -2 18 -2 25 0 6 3 1 5 -13 5 -14 0 -19 -2 -12 -5z"/>
</g>
</svg>
